<svg width="17" height="13" viewBox="0 0 17 13" fill="none" xmlns="http://www.w3.org/2000/svg">
<path d="M14.4708 1.78834C14.4708 0.82914 13.7206 0.044342 12.8036 0.044342H10.3028V1.78834H12.8036V4.09913L9.9027 7.89232H6.96843V3.53233H3.63404C1.79179 3.53233 0.299652 5.09321 0.299652 7.02033V9.63632H1.96685C1.96685 11.0838 3.08387 12.2523 4.46764 12.2523C5.85141 12.2523 6.96843 11.0838 6.96843 9.63632H10.7029L14.4708 4.70953V1.78834ZM4.46764 10.5083C4.00916 10.5083 3.63404 10.1159 3.63404 9.63632H5.30124C5.30124 10.1159 4.92612 10.5083 4.46764 10.5083Z" fill="black"/>
<path d="M6.96843 0.916336H2.80043V2.66031H6.96843V0.916336Z" fill="black"/>
<path d="M14.4708 7.02032C13.087 7.02032 11.97 8.1888 11.97 9.63631C11.97 11.0838 13.087 12.2523 14.4708 12.2523C15.8546 12.2523 16.9716 11.0838 16.9716 9.63631C16.9716 8.1888 15.8546 7.02032 14.4708 7.02032ZM14.4708 10.5083C14.0123 10.5083 13.6372 10.1159 13.6372 9.63631C13.6372 9.15671 14.0123 8.76431 14.4708 8.76431C14.9293 8.76431 15.3044 9.15671 15.3044 9.63631C15.3044 10.1159 14.9293 10.5083 14.4708 10.5083Z" fill="black"/>
</svg>
